<?xml version="1.0" encoding="UTF-8"?>
<svg xmlns="http://www.w3.org/2000/svg" xmlns:xlink="http://www.w3.org/1999/xlink" width="600" height="400" viewBox="0 0 600 400">
<rect x="-60" y="-40" width="720" height="480" fill="rgb(0%, 0%, 0%)" fill-opacity="1"/>
<path fill="none" stroke-width="0.22" stroke-linecap="butt" stroke-linejoin="miter" stroke="rgb(100%, 100%, 100%)" stroke-opacity="1" stroke-miterlimit="10" d="M 0 0 L 100 0 L 100 100 L 0 100 Z M 0 100 L 100 100 L 100 200 L 0 200 Z M 0 200 L 100 200 L 100 300 L 0 300 Z M 0 300 L 100 300 L 100 400 L 0 400 Z M 100 0 L 200 0 L 200 100 L 100 100 Z M 100 100 L 200 100 L 200 200 L 100 200 Z M 100 200 L 200 200 L 200 300 L 100 300 Z M 100 300 L 200 300 L 200 400 L 100 400 Z M 200 0 L 300 0 L 300 100 L 200 100 Z M 200 100 L 300 100 L 300 200 L 200 200 Z M 200 200 L 300 200 L 300 300 L 200 300 Z M 200 300 L 300 300 L 300 400 L 200 400 Z M 300 0 L 400 0 L 400 100 L 300 100 Z M 300 100 L 400 100 L 400 200 L 300 200 Z M 300 200 L 400 200 L 400 300 L 300 300 Z M 300 300 L 400 300 L 400 400 L 300 400 Z M 400 0 L 500 0 L 500 100 L 400 100 Z M 400 100 L 500 100 L 500 200 L 400 200 Z M 400 200 L 500 200 L 500 300 L 400 300 Z M 400 300 L 500 300 L 500 400 L 400 400 Z M 500 0 L 600 0 L 600 100 L 500 100 Z M 500 100 L 600 100 L 600 200 L 500 200 Z M 500 200 L 600 200 L 600 300 L 500 300 Z M 500 300 L 600 300 L 600 400 L 500 400 Z M 500 300 "/>
<path fill="none" stroke-width="5" stroke-linecap="butt" stroke-linejoin="miter" stroke="rgb(100%, 0%, 0%)" stroke-opacity="1" stroke-miterlimit="10" d="M 150 100 L 450 100 L 450 300 L 150 300 Z M 150 100 "/>
<path fill="none" stroke-width="3" stroke-linecap="butt" stroke-linejoin="miter" stroke="rgb(100%, 0%, 100%)" stroke-opacity="1" stroke-miterlimit="10" d="M 100 50 L 300 50 "/>
<path fill="none" stroke-width="3" stroke-linecap="butt" stroke-linejoin="miter" stroke="rgb(0%, 100%, 100%)" stroke-opacity="1" stroke-miterlimit="10" d="M 100 150 L 300 150 "/>
<path fill="none" stroke-width="3" stroke-linecap="butt" stroke-linejoin="miter" stroke="rgb(0%, 100%, 0%)" stroke-opacity="1" stroke-miterlimit="10" d="M 100 200 L 500 200 "/>
<path fill="none" stroke-width="3" stroke-linecap="butt" stroke-linejoin="miter" stroke="rgb(100%, 100%, 0%)" stroke-opacity="1" stroke-miterlimit="10" d="M 200 250 L 400 250 "/>
</svg>
